<?xml version="1.0" standalone="no"?>
<!DOCTYPE svg PUBLIC "-//W3C//DTD SVG 20010904//EN"
 "http://www.w3.org/TR/2001/REC-SVG-20010904/DTD/svg10.dtd">
<svg version="1.0" xmlns="http://www.w3.org/2000/svg"
 width="737.000000pt" height="737.000000pt" viewBox="0 0 737.000000 737.000000"
 preserveAspectRatio="xMidYMid meet">
<metadata>
Created by potrace 1.16, written by Peter Selinger 2001-2019
</metadata>
<g transform="translate(0.000000,737.000000) scale(0.100000,-0.100000)"
fill="#000000" stroke="none">
<path d="M4410 6450 c-14 -4 -62 -18 -108 -30 -116 -32 -148 -80 -107 -160 15
-30 161 -253 236 -362 21 -31 39 -62 39 -67 0 -25 25 -61 42 -61 10 0 18 -5
18 -12 0 -13 318 -498 335 -511 5 -4 27 -6 47 -3 40 4 49 -2 86 -65 20 -34 21
-39 7 -65 -8 -16 -15 -36 -15 -45 0 -17 95 -173 142 -231 37 -47 49 -48 197
-3 115 34 126 41 137 83 7 24 -64 146 -138 240 -21 26 -42 57 -48 70 -17 40
-252 392 -261 392 -5 0 -9 5 -9 12 0 21 -61 107 -81 113 -11 4 -19 15 -19 27
0 19 -53 116 -70 128 -4 3 -13 16 -20 30 -33 64 -342 519 -356 524 -18 7 -21
7 -54 -4z m108 -151 c40 -61 72 -112 70 -114 -2 -2 -15 -6 -30 -10 -25 -6 -31
-2 -68 56 -22 34 -42 64 -43 66 -7 6 -117 -30 -117 -39 0 -5 18 -36 41 -69 22
-33 39 -62 37 -63 -1 -2 -13 -8 -24 -14 -26 -14 -28 -11 -102 104 -53 81 -62
113 -39 132 9 8 170 57 197 61 3 0 38 -49 78 -110z m104 -171 c16 -13 134
-187 144 -212 3 -9 -15 -19 -53 -31 -32 -10 -68 -22 -80 -26 -22 -8 -23 -6
-23 37 0 41 3 46 30 55 l30 11 -18 30 c-28 49 -36 52 -89 32 -59 -22 -65 -26
-57 -48 6 -15 8 -15 18 -1 7 9 19 12 34 9 20 -6 22 -12 22 -73 0 -39 -5 -72
-12 -79 -18 -18 -48 -15 -48 5 0 9 -27 59 -61 109 -33 51 -59 100 -57 110 2
11 34 27 98 49 115 40 103 38 122 23z m208 -304 c13 -20 19 -39 14 -43 -5 -5
-40 -19 -79 -31 -38 -12 -73 -25 -77 -29 -11 -10 32 -71 50 -71 9 0 49 9 90
21 40 11 79 18 85 16 7 -3 20 -18 30 -35 l17 -30 -102 -32 c-57 -17 -110 -33
-119 -36 -11 -3 -36 26 -83 97 -38 55 -70 109 -73 119 -4 15 12 24 99 53 56
20 108 36 115 36 6 1 21 -15 33 -35z m186 -284 c15 -22 25 -42 23 -44 -6 -6
-215 -66 -228 -66 -5 0 -22 17 -36 38 l-25 37 112 37 c62 20 116 36 120 37 4
1 20 -17 34 -39z m139 -210 c41 -63 72 -117 67 -121 -9 -9 -122 -49 -139 -49
-12 0 -83 102 -83 120 0 21 48 9 64 -15 18 -28 53 -33 62 -10 5 12 -30 85 -41
85 -2 0 -46 -11 -97 -25 -51 -14 -94 -25 -94 -25 -7 0 -54 83 -50 87 8 8 219
73 228 70 4 -1 41 -54 83 -117z m189 -287 c42 -64 73 -120 69 -124 -7 -6 -212
-69 -226 -69 -11 0 -141 206 -141 224 -1 15 18 26 94 52 52 18 102 33 111 33
11 1 45 -43 93 -116z"/>
<path d="M3117 6408 c-23 -18 -167 -238 -167 -256 0 -7 -21 -34 -46 -58 -27
-26 -58 -71 -75 -109 -16 -35 -33 -66 -38 -69 -8 -5 -63 -84 -198 -286 -141
-209 -145 -222 -88 -265 l34 -27 -36 -54 c-20 -30 -38 -54 -41 -54 -2 0 -20 9
-39 21 -46 29 -71 19 -115 -45 -21 -30 -38 -57 -38 -60 0 -3 -19 -33 -42 -65
-24 -33 -61 -89 -83 -126 -22 -37 -53 -83 -68 -103 -49 -63 -79 -120 -73 -140
3 -10 35 -37 71 -60 49 -32 65 -49 65 -66 0 -24 19 -45 58 -65 19 -10 28 -10
46 3 27 17 82 100 91 138 4 15 15 30 25 33 23 7 90 108 90 135 0 12 21 42 48
68 68 67 96 128 90 200 -4 49 -1 62 20 95 17 26 28 35 36 27 5 -5 23 -10 38
-10 22 0 36 11 63 48 19 26 40 63 46 82 6 19 19 42 29 50 35 30 80 104 80 131
0 21 5 28 23 31 14 2 37 25 65 66 48 72 49 80 23 109 -20 21 -20 21 11 27 67
13 144 104 169 197 9 33 22 52 45 68 43 30 100 115 115 172 19 72 4 97 -105
168 -51 34 -97 61 -102 61 -6 0 -18 -6 -27 -12z m186 -152 c26 -36 -47 -174
-108 -203 l-34 -16 -80 53 c-45 29 -81 55 -81 59 0 5 42 73 56 90 2 2 40 -20
85 -49 58 -37 84 -49 92 -41 6 6 9 12 6 14 -2 2 -39 28 -82 56 -87 59 -84 44
-31 126 l16 24 76 -51 c43 -28 81 -56 85 -62z m-273 -181 c0 -2 -12 -21 -26
-42 -16 -24 -33 -38 -47 -38 -13 0 -23 -7 -25 -17 -6 -29 20 -21 78 22 58 43
83 49 118 24 28 -19 28 -46 1 -102 -45 -93 -125 -148 -157 -109 -10 12 7 48
44 95 1 2 12 -3 23 -10 18 -11 23 -11 31 2 14 22 12 28 -10 35 -13 4 -35 -6
-73 -34 -56 -43 -75 -48 -108 -31 -24 13 -25 59 -3 103 25 49 75 108 98 117
18 7 56 -3 56 -15z m-184 -240 c-9 -14 -16 -28 -16 -33 0 -5 34 -31 75 -59
l75 -49 -27 -40 c-14 -21 -29 -43 -33 -47 -5 -5 -43 14 -85 43 -72 49 -77 51
-90 33 -8 -10 -15 -21 -15 -25 0 -12 -25 -9 -37 3 -8 8 7 39 59 115 63 93 72
103 90 93 18 -10 18 -12 4 -34z m-81 -248 l94 -63 -26 -40 c-14 -21 -29 -43
-33 -47 -6 -7 -154 83 -198 119 -5 3 57 94 64 94 2 0 47 -28 99 -63z m-98
-129 c54 -37 79 -60 81 -76 4 -27 -53 -122 -73 -122 -20 0 -28 19 -16 34 13
15 4 25 -86 85 l-62 41 31 45 c18 25 35 45 39 45 4 0 43 -24 86 -52z m-209
-289 c42 -28 79 -53 81 -55 1 -1 3 -19 3 -38 0 -40 -48 -123 -90 -156 -38 -30
-66 -25 -148 30 l-74 51 30 44 c17 25 34 45 38 45 4 0 41 -22 82 -49 70 -46
90 -53 90 -31 0 5 -34 32 -75 60 -41 28 -75 53 -75 57 0 7 54 93 58 93 2 0 38
-23 80 -51z m-64 -349 c-8 -23 -48 -80 -56 -80 -13 0 -188 120 -188 129 0 4
14 27 30 50 l30 41 95 -62 c66 -44 93 -67 89 -78z m-187 -57 c59 -40 83 -63
83 -77 0 -12 -16 -45 -36 -74 -27 -41 -38 -51 -48 -43 -7 6 -11 21 -9 34 4 20
-7 31 -71 73 l-75 50 30 47 c16 26 32 47 36 47 4 0 45 -26 90 -57z"/>
<path d="M3990 6052 c-103 -176 -275 -467 -311 -527 -25 -42 -42 -55 -97 -82
-37 -17 -84 -49 -106 -70 -61 -60 -76 -102 -76 -215 0 -111 9 -90 -143 -344
l-96 -162 -93 -46 c-51 -25 -96 -46 -100 -46 -14 0 100 192 124 210 4 3 9 16
11 29 2 12 8 26 14 29 6 4 14 18 18 32 9 27 56 103 68 108 4 2 7 10 7 18 0 9
5 12 12 8 8 -5 9 -2 5 9 -3 10 -2 17 3 17 6 0 10 7 10 17 0 9 12 32 27 52 15
19 28 40 29 46 2 17 64 112 64 100 0 -6 -6 -17 -12 -25 -11 -12 -10 -12 5 0
11 8 16 21 14 32 -3 10 -1 18 4 18 5 0 9 9 9 21 0 11 5 17 10 14 6 -3 10 -1
10 5 0 6 9 21 20 33 11 12 18 27 16 34 -3 7 0 12 7 10 7 -1 12 5 12 15 0 9 9
26 20 39 11 12 14 19 6 14 -8 -5 2 13 23 40 20 27 39 59 42 72 4 13 10 23 15
23 5 0 9 6 9 14 0 8 6 21 14 28 7 8 21 29 31 48 10 19 24 40 31 48 8 7 14 20
14 27 0 7 6 20 13 27 7 7 19 26 27 42 29 57 35 66 43 66 4 0 5 5 2 11 -4 5 1
19 10 29 28 31 94 156 110 209 6 18 4 23 -6 19 -8 -3 -79 -22 -159 -42 -80
-20 -165 -44 -190 -52 l-45 -15 -558 -839 c-308 -462 -561 -849 -564 -860 -3
-11 -10 -20 -15 -20 -5 0 -7 -4 -3 -9 3 -5 -6 -22 -20 -37 -14 -15 -25 -34
-25 -43 0 -9 -12 -27 -26 -40 -14 -13 -31 -36 -39 -51 -8 -15 -21 -30 -29 -33
-9 -4 -22 -21 -29 -39 -8 -18 -43 -73 -78 -123 -36 -49 -90 -128 -120 -175
-31 -47 -162 -245 -291 -440 -217 -329 -267 -405 -410 -626 -29 -45 -111 -167
-181 -272 -71 -105 -126 -195 -123 -200 9 -16 116 -21 531 -27 215 -3 575 -10
800 -15 226 -5 507 -10 625 -11 118 -1 247 -4 287 -7 l71 -4 -10 -30 c-6 -16
-8 -47 -5 -69 l5 -39 -1158 -2 -1158 -3 155 -120 c86 -66 184 -142 219 -170
34 -27 107 -85 162 -127 l101 -78 528 10 c290 6 769 14 1063 20 294 5 641 12
771 16 l237 7 5 -484 c6 -479 13 -594 39 -610 22 -15 172 -10 248 7 114 26
111 15 83 250 -12 109 -22 206 -21 214 2 8 -1 21 -5 27 -4 7 -9 53 -9 103 -1
50 -5 93 -10 96 -4 3 -8 33 -7 67 1 54 2 57 9 27 4 -19 12 -71 18 -115 63
-437 77 -510 105 -530 28 -19 138 -20 192 -1 l40 14 -1 64 c0 35 -12 108 -27
163 -43 166 -54 221 -93 456 -20 125 -35 233 -31 242 6 16 161 22 999 36 235
4 430 10 434 13 3 4 -130 244 -297 535 -286 499 -388 681 -389 694 0 3 8 14
19 25 37 40 42 59 30 112 -11 48 -6 102 9 102 9 -1 29 -33 127 -201 43 -74 85
-145 94 -159 9 -14 21 -34 27 -45 6 -11 66 -114 134 -230 68 -115 178 -304
246 -420 67 -115 126 -209 131 -207 4 1 17 27 29 57 11 31 24 52 29 48 4 -5 5
-3 1 4 -7 12 81 294 151 483 4 8 7 20 7 25 1 6 5 25 10 43 7 31 -2 48 -177
310 -239 360 -796 1199 -1002 1512 -89 135 -350 529 -580 875 -691 1041 -660
995 -674 995 -3 0 -40 -58 -81 -128z m151 -590 c8 -15 61 -106 118 -202 92
-156 192 -328 286 -490 17 -30 86 -147 152 -260 123 -211 226 -389 231 -401 2
-4 -5 -5 -16 -3 -11 4 -22 21 -30 49 -6 24 -23 55 -37 69 -33 33 -205 163
-267 201 -26 17 -49 34 -50 40 -2 5 -81 146 -175 312 l-173 301 0 64 c0 82
-21 167 -50 209 -28 40 -70 82 -95 96 -13 8 -16 17 -10 42 3 17 11 31 16 31 6
0 7 5 3 12 -5 8 -2 9 9 5 10 -4 17 -1 17 6 1 15 52 -43 71 -81z m-173 -31 c57
-23 107 -63 137 -112 26 -41 37 -95 55 -284 5 -55 12 -116 16 -136 8 -51 -14
-62 -123 -61 -53 1 -62 -5 -43 -24 6 -6 12 -28 13 -49 1 -23 8 -40 16 -43 10
-3 12 0 8 11 -13 34 18 29 50 -8 39 -45 44 -34 8 15 -18 25 -22 36 -13 39 7 2
19 10 26 18 7 7 25 13 39 13 25 0 25 -1 21 -70 -3 -52 -9 -75 -25 -92 -31 -34
-40 -57 -47 -113 l-6 -50 14 48 c15 51 29 73 57 88 15 8 30 -8 101 -109 46
-64 101 -144 123 -177 33 -49 41 -55 43 -37 4 27 11 28 28 5 9 -12 13 -14 14
-5 0 13 -71 112 -113 157 -16 18 -16 20 -2 23 54 12 215 -77 383 -211 91 -74
104 -89 109 -140 l5 -43 61 -13 c73 -15 139 -44 190 -84 40 -31 107 -122 107
-145 0 -8 -29 10 -65 38 -36 29 -68 50 -70 48 -3 -3 33 -43 78 -90 77 -79 87
-94 134 -204 28 -65 61 -150 73 -189 14 -44 35 -83 55 -105 58 -63 84 -138 66
-195 -8 -27 -9 -24 -10 25 -1 58 -7 71 -98 205 -18 26 -34 53 -36 59 -2 6 -7
9 -10 6 -6 -6 15 -43 89 -160 28 -45 34 -63 34 -111 0 -42 -5 -63 -21 -83 -19
-24 -20 -32 -10 -71 18 -73 14 -88 -38 -148 -27 -31 -52 -66 -56 -77 -5 -15
-15 -20 -43 -20 l-36 0 26 28 c14 15 31 37 37 49 14 27 14 113 1 149 -8 21 -6
33 10 61 21 36 26 63 12 63 -5 0 -14 -11 -20 -24 -29 -65 -116 -70 -195 -12
-53 39 -324 140 -292 109 12 -12 134 -58 191 -73 22 -5 54 -24 70 -40 16 -17
41 -37 55 -45 24 -13 100 -114 111 -147 3 -9 10 -8 23 6 19 18 18 20 -7 67
-27 51 -21 68 9 23 10 -16 17 -46 17 -77 0 -46 -3 -53 -41 -86 -22 -20 -89
-62 -147 -94 -112 -62 -150 -72 -307 -79 l-67 -2 -79 74 c-44 41 -99 85 -124
98 -110 56 -202 112 -183 112 5 0 14 -4 19 -9 6 -5 39 -19 74 -31 96 -32 141
-57 192 -107 31 -30 49 -41 54 -33 11 18 -99 118 -158 144 -29 13 -70 31 -92
40 -22 10 -55 30 -72 45 -31 26 -32 28 -17 49 8 12 23 22 33 22 11 0 22 7 25
16 4 11 14 15 31 12 19 -4 25 -1 25 11 0 10 15 22 38 31 20 7 31 15 25 17 -7
3 -58 -12 -113 -31 -165 -59 -178 -47 -67 63 80 78 201 172 244 189 16 6 62
21 103 32 41 12 116 40 167 61 110 47 144 48 253 12 98 -32 158 -85 200 -177
20 -42 29 -54 29 -38 2 39 -34 94 -106 164 -96 93 -137 113 -240 113 l-82 0
-6 30 c-11 54 -37 128 -58 163 -22 37 -37 29 -17 -8 6 -12 9 -24 7 -27 -3 -2
-17 18 -33 46 -15 28 -33 51 -39 51 -12 0 -65 72 -65 87 0 5 24 21 53 38 37
21 47 30 34 33 -10 2 -36 -8 -57 -22 -45 -30 -60 -32 -60 -11 0 19 64 62 115
77 37 11 38 12 13 16 -28 3 -96 -26 -117 -52 -8 -9 -19 -16 -25 -16 -6 0 -49
43 -95 96 -81 93 -124 122 -65 45 111 -146 138 -185 177 -261 69 -131 89 -218
71 -309 -7 -36 -25 -47 -130 -85 -58 -21 -75 -23 -118 -15 -29 5 -61 19 -76
33 -26 25 -90 66 -102 66 -20 0 -4 -22 33 -46 22 -14 39 -28 36 -30 -3 -3 -26
-2 -51 1 l-46 7 0 55 c0 113 -20 194 -76 311 -30 61 -59 112 -64 112 -14 0
-14 2 25 -78 61 -126 75 -181 75 -293 l0 -101 -27 6 c-16 4 -120 9 -233 12
-136 3 -230 10 -279 21 -54 12 -98 14 -171 9 l-98 -6 -32 38 c-18 20 -48 61
-67 90 -31 49 -53 66 -53 42 0 -22 28 -77 64 -125 34 -46 32 -45 -23 15 -34
36 -77 96 -97 134 -36 68 -36 70 -32 165 7 133 40 201 104 217 32 8 54 22 54
35 0 26 -131 -16 -182 -59 -17 -14 -38 -42 -47 -62 l-16 -35 -2 35 c-9 109
-15 160 -21 160 -4 0 -8 -54 -10 -119 -3 -125 -18 -201 -41 -209 -11 -4 -13 3
-7 34 32 176 30 277 -7 357 -17 37 -32 57 -43 57 -16 0 -16 -1 -1 -18 36 -40
50 -94 49 -192 -1 -82 -22 -204 -38 -219 -6 -6 -74 30 -74 39 0 25 -206 86
-267 78 -20 -3 -7 -9 48 -21 41 -10 98 -29 125 -42 l49 -23 -146 -1 c-168 -1
-262 -20 -361 -73 l-60 -32 -28 30 c-31 36 -44 106 -34 184 4 31 3 50 -4 50
-13 0 -25 -118 -17 -166 7 -39 26 -77 52 -102 11 -12 9 -19 -17 -45 -35 -36
-41 -60 -7 -31 51 45 52 46 81 23 34 -27 47 -16 17 15 l-22 23 36 22 c53 31
141 58 210 65 l60 7 -53 -28 c-189 -100 -280 -341 -193 -511 17 -33 50 -72 52
-61 0 2 2 35 3 73 3 60 1 67 -10 51 -7 -10 -15 -23 -17 -29 -11 -27 -31 19
-35 78 -11 172 100 328 276 387 51 17 91 23 167 23 135 1 203 -24 275 -100 63
-67 92 -129 98 -214 l4 -66 -62 -38 c-35 -22 -103 -72 -151 -113 -67 -55 -89
-79 -89 -98 0 -32 16 -40 33 -15 17 24 164 136 230 174 107 62 303 101 469 94
113 -5 175 -23 312 -90 44 -21 81 -38 83 -38 1 0 3 7 3 15 0 9 -28 33 -62 55
l-63 40 105 0 c58 0 168 -9 245 -20 77 -11 158 -20 180 -20 22 0 45 -4 52 -8
8 -5 -58 -72 -189 -192 -110 -102 -208 -191 -219 -198 -17 -13 -18 -12 -10 15
15 53 40 92 106 165 63 69 75 88 57 88 -13 0 -114 -109 -150 -162 -39 -57
-108 -193 -118 -231 -24 -101 -318 -299 -534 -360 -187 -52 -317 -87 -327 -87
-6 0 -14 16 -17 35 -10 51 -29 44 -22 -7 5 -42 5 -42 -12 11 -18 55 -50 88
-39 40 18 -79 18 -89 5 -89 -20 0 -42 20 -66 60 -24 41 -79 88 -139 119 -63
32 -145 102 -275 235 -114 116 -140 156 -99 156 28 0 52 11 45 21 -3 5 -22 9
-42 9 -42 0 -94 29 -134 74 -22 24 -28 27 -28 13 0 -28 27 -62 73 -93 32 -21
38 -29 24 -32 -25 -5 -80 32 -127 85 -30 35 -43 44 -52 35 -15 -15 106 -139
143 -147 34 -8 105 -68 249 -214 83 -83 138 -129 195 -163 44 -25 94 -61 110
-79 l30 -33 -50 37 c-27 21 -95 67 -150 103 -66 44 -146 111 -235 198 -86 85
-150 139 -178 151 -53 23 -172 146 -206 212 -46 93 -44 192 10 373 14 47 32
99 39 115 10 21 15 86 17 215 3 185 3 185 35 250 63 129 153 196 348 260 164
53 243 66 311 51 53 -12 153 -70 188 -109 34 -39 39 -23 6 18 -40 51 -110 100
-174 121 l-48 17 43 29 c24 17 77 47 118 68 69 34 77 36 110 25 92 -30 92 -70
1 -46 -63 17 -79 13 -29 -8 69 -28 96 -28 114 0 9 14 37 47 62 72 25 26 60 79
78 117 33 69 34 70 44 43 6 -16 15 -28 20 -28 10 0 -4 35 -39 102 -23 42 -24
48 -10 48 6 0 10 -7 10 -16 0 -14 22 -44 33 -44 3 0 8 18 12 40 8 50 25 43 25
-11 0 -24 4 -38 10 -34 6 3 10 26 10 50 0 37 -5 47 -32 69 l-33 25 23 23 c23
22 24 22 35 5 31 -50 37 -53 27 -18 -9 32 -24 50 -43 51 -13 0 3 212 19 257
10 27 34 59 66 88 61 55 79 59 30 8 -57 -61 -82 -126 -82 -213 0 -41 4 -81 9
-89 6 -9 9 11 9 57 0 54 6 84 25 124 48 105 110 154 238 187 93 24 162 25 217
2z m-1839 -2523 c-23 -40 -59 -101 -80 -135 -22 -34 -39 -65 -39 -68 0 -6 30
-2 236 31 84 13 162 22 175 20 13 -3 27 -5 31 -5 4 -1 40 -31 80 -67 40 -36
92 -77 116 -91 42 -25 54 -43 29 -43 -11 0 -659 -63 -862 -84 -73 -8 -82 1
-55 55 13 24 36 63 52 87 16 23 26 42 23 42 -4 0 3 13 14 29 12 16 21 32 21
35 0 3 15 28 33 54 19 26 32 53 29 61 -3 8 0 11 6 7 6 -3 23 18 39 50 46 93
57 110 86 145 15 18 27 37 27 42 0 5 18 -13 41 -41 l40 -51 -42 -73z m2146
-141 c38 -92 54 -377 23 -414 -7 -9 -7 -13 0 -13 13 0 52 48 52 64 0 6 14 19
31 29 l31 17 -20 -33 c-10 -19 -28 -46 -38 -62 -14 -22 -15 -27 -4 -23 8 2 30
29 48 59 54 89 56 136 4 86 -36 -34 -44 -34 -31 1 14 35 46 191 54 264 l7 57
36 -15 c20 -8 48 -25 61 -37 54 -50 121 -140 130 -175 14 -57 43 -400 36 -432
-5 -24 -16 -33 -63 -50 -31 -12 -76 -32 -99 -46 -44 -25 -73 -23 -73 5 0 31
-132 123 -150 104 -3 -3 1 -8 8 -10 24 -9 134 -95 128 -100 -3 -4 -16 -2 -29
4 -147 70 -200 92 -208 87 -18 -11 -8 -33 33 -74 23 -22 36 -39 28 -36 -8 3
-54 17 -102 31 -48 13 -130 45 -182 70 l-95 46 -3 81 -3 82 -30 -48 c-33 -52
-140 -149 -192 -174 -30 -14 -39 -14 -140 14 l-108 29 -28 51 c-15 29 -30 71
-33 95 l-6 44 70 -3 c72 -4 123 11 165 47 17 14 17 13 8 -13 -25 -64 0 -87 52
-46 37 30 39 25 10 -32 -29 -58 -41 -145 -24 -174 9 -16 10 -11 11 26 0 69 14
104 69 178 28 37 51 73 51 80 0 18 -35 15 -83 -9 l-42 -20 25 21 c25 21 226
156 390 262 47 30 107 74 135 96 27 23 56 42 63 42 7 0 19 -15 27 -33z m1023
-326 c240 -350 272 -397 272 -404 0 -8 -636 -9 -666 -1 -13 3 -25 19 -32 41
-18 60 -9 63 197 63 100 0 181 3 181 6 0 7 -40 65 -181 264 -64 91 -120 175
-123 188 -7 21 -4 22 39 22 51 0 103 18 124 44 10 12 17 14 27 5 8 -7 81 -109
162 -228z m-1552 -551 c160 -57 293 -95 379 -107 25 -3 45 -10 45 -14 0 -14
-48 -22 -93 -15 -65 10 -289 89 -417 146 -185 83 -167 81 86 -10z m790 -48
c13 -29 24 -59 24 -66 0 -17 -85 -96 -104 -96 -8 0 -36 20 -63 45 l-48 44 29
1 c19 0 40 -10 57 -26 l26 -25 27 31 c33 40 33 57 -4 106 -33 44 -36 54 -18
72 16 16 40 -12 74 -86z m-2811 72 c8 -9 15 -21 15 -27 0 -7 5 -30 11 -52 l11
-39 62 67 63 66 59 -5 c32 -3 60 -7 61 -8 1 -1 -14 -54 -35 -117 l-37 -114
-54 -3 -53 -3 6 38 7 38 -31 -38 c-31 -37 -34 -38 -88 -35 l-55 3 -23 100
c-13 55 -26 110 -28 122 -5 19 -2 21 44 21 31 1 55 -5 65 -14z m590 -1 c7 -7
16 -30 20 -51 11 -68 17 -68 82 2 l59 65 59 -4 c33 -2 60 -7 61 -12 2 -4 -14
-57 -34 -118 l-37 -110 -54 -3 -53 -3 6 38 7 38 -33 -38 c-32 -37 -35 -38 -87
-35 l-54 3 -27 117 c-15 65 -25 120 -22 123 11 11 94 1 107 -12z m718 3 c14
-15 57 -176 57 -217 0 -16 -7 -19 -55 -19 -50 0 -56 2 -65 25 -8 22 -16 25
-57 25 l-47 0 29 30 c16 17 35 30 42 30 15 0 16 9 5 27 -5 9 -29 -11 -76 -62
-62 -69 -70 -75 -107 -75 -21 0 -39 2 -39 5 0 4 47 59 105 124 102 114 106
117 149 120 28 1 49 -4 59 -13z"/>
<path d="M3563 4863 c15 -2 27 -11 27 -19 0 -10 12 -14 41 -14 22 0 63 -10 90
-22 l51 -21 -61 -39 c-65 -41 -81 -59 -30 -33 40 21 174 65 197 65 18 0 82 58
82 74 0 4 -16 -2 -35 -14 -39 -24 -47 -24 -164 9 -50 14 -100 20 -150 20 -42
-1 -64 -4 -48 -6z"/>
<path d="M3467 4685 c-5 -27 -15 -70 -24 -95 l-15 -45 39 -40 c43 -46 275
-306 307 -345 12 -14 -45 42 -126 126 -131 134 -198 195 -198 179 0 -6 131
-153 230 -258 37 -39 67 -73 67 -74 -1 -1 -38 7 -82 18 -79 18 -247 41 -254
33 -6 -5 9 -9 149 -39 156 -33 267 -75 305 -115 36 -38 87 -52 162 -45 86 9
103 14 103 30 0 11 -13 15 -55 15 -47 0 -55 3 -55 18 0 10 17 29 37 43 24 15
40 35 44 54 4 17 12 51 18 78 6 26 11 71 11 99 0 39 5 57 22 75 23 24 36 86
37 171 1 33 -3 51 -9 47 -5 -3 -10 -37 -10 -75 0 -75 -19 -128 -52 -149 -17
-11 -22 -10 -29 1 -5 8 -9 -7 -9 -40 0 -66 -11 -87 -51 -101 -39 -14 -133 -14
-178 -1 -29 8 -128 74 -156 105 -5 5 -39 33 -75 62 -36 28 -81 68 -100 88 -34
35 -35 39 -40 133 -5 92 -6 94 -13 47z"/>
<path d="M2785 2850 c9 -76 27 -141 49 -175 19 -29 101 -57 173 -59 50 -1 57
2 82 31 20 24 37 33 74 38 50 8 68 35 23 35 -37 0 -40 17 -5 24 58 11 89 8 82
-10 -5 -13 -1 -15 15 -10 12 3 31 9 43 12 11 3 18 11 16 17 -8 25 -164 36
-207 14 -13 -7 -38 -31 -55 -55 l-30 -42 -65 6 c-35 3 -74 10 -87 15 -26 10
-55 62 -78 144 -25 87 -39 94 -30 15z"/>
<path d="M5445 4744 c-21 -8 -42 -18 -45 -23 -3 -4 -27 -11 -55 -14 -61 -6
-89 -34 -74 -74 14 -38 177 -283 188 -283 6 0 19 -19 29 -42 23 -52 222 -357
245 -377 10 -8 31 -12 53 -9 34 4 38 1 71 -48 33 -50 34 -55 23 -89 -7 -20 -9
-48 -5 -63 9 -36 231 -372 247 -373 7 -1 19 -1 26 0 9 1 11 -6 7 -22 -4 -15 0
-38 11 -58 29 -58 134 -209 144 -209 6 0 10 -7 10 -15 0 -12 89 -154 154 -246
9 -13 35 -52 56 -86 30 -48 45 -63 63 -63 20 0 23 -4 20 -27 -5 -31 62 -145
90 -156 25 -10 58 4 68 29 6 18 16 24 38 24 48 0 124 29 149 56 37 41 29 71
-53 195 -42 63 -84 123 -94 134 -9 11 -20 27 -23 36 -10 27 -239 368 -252 376
-7 5 -15 17 -18 28 -6 22 -333 524 -352 540 -7 6 -15 17 -18 26 -10 26 -155
244 -172 258 -9 8 -16 18 -16 23 0 23 -57 98 -77 104 -13 3 -21 10 -18 14 3 5
1 20 -5 34 -17 45 -237 372 -266 395 -32 25 -89 27 -149 5z m111 -38 c22 -16
164 -225 164 -243 0 -6 -9 -13 -20 -16 -17 -4 -30 9 -75 79 -39 60 -60 84 -75
84 -30 0 -25 -14 30 -96 28 -41 50 -78 50 -82 0 -10 -112 -48 -130 -44 -14 3
-180 243 -180 261 0 5 9 11 20 14 16 4 31 -12 81 -86 60 -91 84 -113 108 -97
10 5 -2 30 -43 91 -31 46 -56 92 -56 101 0 12 15 22 48 32 60 19 54 18 78 2z
m231 -335 l23 -40 -85 -27 c-47 -16 -85 -33 -85 -39 0 -5 10 -23 23 -38 l23
-29 91 25 92 25 22 -34 c12 -19 19 -38 16 -41 -13 -12 -232 -72 -237 -64 -3 4
-34 51 -68 104 -35 53 -62 104 -60 113 2 12 31 28 93 50 117 43 125 42 152 -5z
m233 -353 c39 -61 74 -117 77 -124 3 -8 -14 -18 -49 -27 -110 -32 -100 -34
-141 27 -20 31 -37 60 -37 66 0 21 48 10 64 -15 18 -28 53 -33 62 -10 9 22
-35 87 -55 80 -27 -8 -166 -45 -172 -45 -12 0 -61 82 -52 90 4 4 46 17 93 30
47 13 92 27 100 31 8 5 20 9 26 9 6 0 44 -50 84 -112z m194 -294 c59 -89 74
-119 64 -125 -30 -20 -49 -7 -95 61 -32 49 -51 69 -62 66 -85 -24 -101 -30
-101 -36 0 -4 20 -37 45 -73 l44 -65 -28 -10 c-29 -10 -30 -9 -95 89 -65 98
-77 130 -54 146 13 8 174 60 194 62 6 0 46 -51 88 -115z m148 -226 c84 -121
108 -165 102 -182 -8 -21 -107 -50 -141 -41 -19 4 -29 1 -40 -15 -20 -28 -38
-25 -61 12 -20 32 -20 32 -1 70 11 21 17 43 14 48 -3 5 6 12 21 16 22 6 32 2
50 -19 37 -43 73 -34 49 12 -25 49 -33 51 -120 25 -44 -13 -85 -24 -90 -24
-10 0 -55 65 -58 84 -1 5 50 23 113 41 63 19 116 34 117 34 1 1 21 -27 45 -61z
m178 -269 c12 -16 20 -32 17 -35 -2 -3 -49 -20 -103 -38 -55 -18 -106 -36
-114 -40 -12 -5 -22 5 -39 34 -13 23 -21 43 -19 45 6 6 203 64 220 64 9 1 26
-13 38 -30z m124 -189 c37 -55 70 -109 73 -119 4 -16 -11 -23 -112 -51 -64
-17 -118 -30 -120 -28 -19 22 -135 212 -135 222 0 16 157 74 201 75 21 1 36
-15 93 -99z m181 -272 c33 -51 67 -102 75 -114 12 -21 12 -25 -4 -43 -25 -27
-120 -49 -140 -31 -13 10 -18 7 -33 -19 -10 -17 -21 -31 -25 -31 -4 0 -20 18
-34 40 l-26 39 22 35 c12 20 19 40 15 46 -3 5 6 15 21 21 24 9 31 7 46 -13 10
-13 18 -26 18 -30 0 -11 22 -10 38 1 11 7 9 16 -10 45 -12 19 -27 36 -33 35
-5 0 -46 -10 -90 -23 -44 -13 -84 -22 -88 -19 -10 6 -59 84 -55 88 5 5 212 63
228 64 8 0 42 -41 75 -91z"/>
<path d="M1911 4580 c-67 -49 -129 -161 -118 -216 3 -16 0 -24 -9 -24 -8 0
-14 4 -14 10 0 15 -35 29 -58 23 -26 -6 -83 -92 -83 -125 -1 -63 -12 -118 -23
-118 -14 0 -176 -238 -176 -258 0 -6 -6 -15 -13 -19 -11 -7 -37 -43 -82 -114
-5 -9 -45 -68 -87 -131 -50 -73 -78 -124 -78 -141 0 -23 13 -36 91 -87 113
-74 145 -78 207 -25 45 39 101 129 104 168 1 15 11 30 24 36 22 10 84 91 84
109 0 6 12 23 28 39 15 17 36 48 47 69 11 21 25 44 31 49 13 12 74 101 74 109
0 3 18 31 40 62 22 32 40 61 40 65 0 5 23 38 50 75 28 37 50 71 50 77 0 5 16
25 35 44 56 54 95 130 95 185 0 55 -17 77 -99 132 -67 45 -103 47 -160 6z
m144 -54 c64 -41 77 -63 66 -103 -21 -71 -96 -163 -134 -163 -19 0 -127 65
-139 84 -33 50 70 216 133 216 11 0 44 -16 74 -34z m-344 -279 c-10 -31 -10
-32 7 -11 9 12 22 30 28 40 10 18 15 17 101 -9 50 -14 103 -31 117 -37 l26
-10 -32 -49 c-27 -41 -36 -47 -51 -40 -9 6 -22 7 -27 4 -14 -9 -12 -43 3 -48
14 -4 1 -33 -37 -80 l-22 -28 -79 87 -79 87 17 29 c9 16 13 27 8 24 -20 -13
-19 40 2 73 17 28 22 32 25 18 2 -10 -1 -32 -7 -50z m21 -230 l87 -59 -32 -48
-31 -47 -41 25 c-22 14 -66 43 -97 64 l-57 40 32 48 c18 27 36 46 42 42 5 -3
49 -32 97 -65z m-100 -134 c48 -32 88 -61 88 -66 0 -4 -11 -25 -24 -46 -24
-38 -24 -38 -83 -34 -63 4 -63 7 1 -40 19 -14 19 -15 -3 -51 -13 -20 -27 -36
-32 -36 -5 0 -50 27 -100 60 -58 39 -87 65 -83 73 36 62 44 67 102 67 l57 1
-24 20 c-13 11 -31 23 -39 28 -12 7 -10 14 9 44 13 20 28 37 33 37 6 0 49 -26
98 -57z m-190 -244 c49 -32 80 -60 84 -74 13 -54 -84 -195 -134 -195 -25 0
-172 88 -172 103 0 13 52 87 62 87 5 0 43 -23 85 -51 57 -39 77 -48 84 -38 8
14 -14 33 -104 91 -26 17 -46 33 -45 37 11 22 54 91 57 91 3 0 40 -23 83 -51z"/>
<path d="M1042 3298 c-27 -40 -55 -85 -63 -99 -8 -15 -32 -53 -54 -86 -22 -32
-44 -66 -50 -74 -5 -9 -29 -44 -52 -77 -24 -34 -43 -64 -43 -69 0 -4 -18 -25
-39 -48 -46 -46 -91 -127 -91 -162 0 -16 -8 -27 -24 -33 -25 -9 -86 -91 -86
-116 0 -8 -7 -17 -15 -20 -22 -9 -75 -98 -75 -127 0 -23 16 -38 114 -103 87
-58 119 -74 135 -69 22 7 91 100 91 122 0 7 4 13 9 13 14 0 75 101 77 127 0
14 14 33 34 48 59 44 129 171 117 214 -4 16 1 20 26 23 26 3 40 16 88 83 32
44 58 87 58 96 1 9 8 22 17 30 8 7 51 66 95 132 64 96 79 126 77 151 -3 30 -6
32 -128 73 -69 23 -135 42 -147 42 -17 1 -34 -17 -71 -71z m182 -10 c55 -17
105 -35 110 -39 5 -4 -4 -28 -20 -53 -22 -34 -34 -44 -47 -40 -10 3 -25 0 -33
-7 -13 -10 -13 -14 2 -30 15 -16 14 -21 -16 -63 -17 -25 -34 -46 -38 -45 -9 1
-145 154 -150 168 -3 10 77 141 86 141 2 0 50 -14 106 -32z m-81 -325 c6 -10
-6 -36 -37 -84 -25 -38 -49 -69 -52 -69 -14 0 -210 63 -218 70 -7 7 48 100 60
100 2 0 32 -11 66 -25 34 -14 63 -25 64 -25 2 0 -19 21 -46 46 -28 26 -50 51
-50 56 0 5 14 30 31 55 l32 45 71 -77 c39 -43 75 -84 79 -92z m-236 -154 c41
-27 65 -50 69 -66 12 -45 -55 -158 -110 -188 l-34 -18 -52 33 c-77 49 -92 68
-84 105 16 75 91 167 143 174 3 1 33 -18 68 -40z m-171 -269 c49 -33 89 -64
89 -68 0 -4 -11 -24 -25 -45 l-25 -37 -60 6 -60 6 40 -28 c22 -15 41 -28 43
-30 2 -1 -8 -20 -23 -42 l-27 -40 -61 40 c-34 22 -77 49 -94 60 -39 24 -40 28
-10 73 21 33 25 35 81 35 l59 0 -29 22 c-16 12 -33 25 -38 29 -9 8 30 79 43
79 5 0 48 -27 97 -60z"/>
</g>
</svg>
